<?xml version="1.0" encoding="UTF-8"?>
<svg width="40px" height="40px" viewBox="0 0 40 40" version="1.1" xmlns="http://www.w3.org/2000/svg" xmlns:xlink="http://www.w3.org/1999/xlink">
    <!-- Generator: Sketch 55.2 (78181) - https://sketchapp.com -->
    <title>button-share-twitter</title>
    <desc>Created with Sketch.</desc>
    <g id="Blog" stroke="none" stroke-width="1" fill="none" fill-rule="evenodd">
        <g id="Artboard" transform="translate(-94.000000, -1524.000000)">
            <g id="Group-9" transform="translate(30.000000, 1524.000000)">
                <g id="button-share-twitter" transform="translate(64.000000, 0.000000)">
                    <rect id="Rectangle" fill="#171717" x="0" y="0" width="40" height="40" rx="20"></rect>
                    <path d="M30,14.774736 C29.3006933,15.0759013 28.5503473,15.2801482 27.7619702,15.3713336 C28.5669568,14.9028241 29.1831539,14.1597022 29.4752018,13.2769357 C28.7201058,13.7108057 27.8866191,14.025851 26.9985229,14.196635 C26.2873567,13.4592764 25.2757913,13 24.153796,13 C22.0012663,13 20.2559645,14.696284 20.2559645,16.7872119 C20.2559645,17.0837606 20.2903943,17.3733995 20.3568944,17.6503654 C17.11801,17.4922544 14.2459939,15.9840742 12.323793,13.6923393 C11.9877843,14.2508574 11.7966353,14.9016473 11.7966353,15.5963401 C11.7966353,16.9106834 12.4852622,18.0703856 13.5300777,18.748875 C12.8913103,18.7281154 12.290543,18.5573313 11.764596,18.2734557 L11.764596,18.3207683 C11.764596,20.1555201 13.1085999,21.6867832 14.890691,22.0352913 C14.5641823,22.1206834 14.2198843,22.167996 13.8636959,22.167996 C13.6120075,22.167996 13.3686084,22.1437664 13.1299594,22.0976004 C13.6262265,23.6034873 15.0652305,24.6985571 16.7701728,24.7285801 C15.4368488,25.7440512 13.7556565,26.3475586 11.9296355,26.3475586 C11.6150173,26.3475586 11.3051181,26.3290922 11,26.2956294 C12.7251221,27.372263 14.7731826,28 16.9743921,28 C24.1443581,28 28.0635802,22.2280118 28.0635802,17.2222587 L28.0505099,16.7318429 C28.8162856,16.2009941 29.478772,15.5340311 30,14.774736 Z" id="Shape" fill="#FFFFFF" fill-rule="nonzero"></path>
                </g>
            </g>
        </g>
    </g>
</svg>