<svg xmlns="http://www.w3.org/2000/svg" width="36" height="36" viewBox="0 0 36 36">
  <g fill="none" fill-rule="evenodd">
    <rect width="35.78" height="36" fill="#171717" rx="17.89"/>
    <path fill="#FFF" fill-rule="nonzero" d="M27,12.8472624 C26.3789052,13.1183112 25.7124795,13.3021334 25.0122762,13.3842003 C25.7272314,12.9625417 26.2745117,12.293732 26.5338963,11.4992421 C25.8632518,11.8897251 25.1229841,12.1732659 24.3342144,12.3269715 C23.7025865,11.6633487 22.8041567,11.25 21.8076478,11.25 C19.8958616,11.25 18.3457579,12.7766556 18.3457579,14.6584907 C18.3457579,14.9253846 18.376337,15.1860596 18.4353996,15.4353289 C15.5587589,15.2930289 13.0079551,13.9356668 11.3007372,11.8731053 C11.0023084,12.3757717 10.8325379,12.9614826 10.8325379,13.5867061 C10.8325379,14.769615 11.4441474,15.813347 12.3721085,16.4239875 C11.8047822,16.4053039 11.2712059,16.2515982 10.804082,15.9961101 L10.804082,16.0386914 C10.804082,17.6899681 11.9977696,19.0681049 13.5805479,19.3817622 C13.2905566,19.458615 12.9847657,19.5011964 12.6684141,19.5011964 C12.4448751,19.5011964 12.2286983,19.4793897 12.0167402,19.4378403 C12.4575038,20.7931386 13.7355666,21.7787014 15.2498246,21.8057221 C14.0656222,22.7196461 12.572458,23.2628028 10.9506631,23.2628028 C10.6712325,23.2628028 10.3959931,23.246183 10.125,23.2160665 C11.6571808,24.1850367 13.4761819,24.75 15.4312035,24.75 C21.7992654,24.75 25.2801534,19.5552106 25.2801534,15.0500328 L25.268545,14.6086586 C25.9486748,14.1308947 26.5370673,13.530628 27,12.8472624 Z"/>
  </g>
</svg>
