<?xml version="1.0" encoding="UTF-8"?>
<svg width="502px" height="267px" viewBox="0 0 502 267" version="1.1" xmlns="http://www.w3.org/2000/svg" xmlns:xlink="http://www.w3.org/1999/xlink">
    <!-- Generator: Sketch 52.5 (67469) - http://www.bohemiancoding.com/sketch -->
    <title>404</title>
    <desc>Created with Sketch.</desc>
    <g id="Home" stroke="none" stroke-width="1" fill="none" fill-rule="evenodd">
        <g id="404" transform="translate(-709.000000, -249.000000)">
            <g transform="translate(710.000000, 250.000000)">
                <path d="M-2.84217094e-14,161.810467 L-2.84217094e-14,129.655823 L80.5790245,2.64026403 L131.659529,2.64026403 L131.659529,129.090052 L155.597625,129.090052 L155.597625,161.810467 L131.659529,161.810467 L131.659529,195.756719 L92.6423171,195.756719 L92.6423171,161.810467 L-2.84217094e-14,161.810467 Z M93.3962729,129.090052 L93.3962729,47.1475719 L91.8883613,47.1475719 L41.0905903,127.58133 L41.0905903,129.090052 L93.3962729,129.090052 Z M250.434533,200 C234.224403,199.937136 220.292067,195.945348 208.637109,188.024517 C196.982151,180.103685 188.029016,168.631224 181.777434,153.606789 C175.525853,138.582355 172.431524,120.509299 172.494354,99.3870816 C172.557184,67.7666186 179.515498,43.2972735 193.369505,25.9783121 C207.223512,8.65935078 226.244997,0 250.434533,0 C266.581834,0 280.482754,3.89749364 292.137713,11.6925978 C303.792671,19.487702 312.761513,30.7872904 319.04451,45.591702 C325.327506,60.3961136 328.437542,78.3277275 328.374712,99.3870816 C328.311882,131.196136 321.369276,155.916932 307.546684,173.550212 C293.724092,191.183492 274.686899,200 250.434533,200 Z M250.434533,166.148043 C261.492607,166.148043 270.320084,160.584686 276.91723,149.457803 C283.514376,138.33092 286.781485,121.640847 286.718655,99.3870816 C286.718655,77.4476351 283.420132,60.9775813 276.822986,49.9764262 C270.22584,38.9752711 261.429777,33.474776 250.434533,33.474776 C239.43929,33.474776 230.643227,38.9752711 224.046081,49.9764262 C217.448935,60.9775813 214.118997,77.4476351 214.056167,99.3870816 C213.993337,121.640847 217.276153,138.33092 223.904714,149.457803 C230.533275,160.584686 239.37646,166.148043 250.434533,166.148043 Z M344.402375,161.810467 L344.402375,129.655823 L424.981399,2.64026403 L476.061904,2.64026403 L476.061904,129.090052 L500,129.090052 L500,161.810467 L476.061904,161.810467 L476.061904,195.756719 L437.044692,195.756719 L437.044692,161.810467 L344.402375,161.810467 Z M437.798648,129.090052 L437.798648,47.1475719 L436.290736,47.1475719 L385.492965,127.58133 L385.492965,129.090052 L437.798648,129.090052 Z" stroke="#000000" stroke-width="2" fill="#FFFFFF"></path>
                <path d="M170.578125,261 L170.578125,245 L176.578125,245 C177.807298,245 178.841142,245.229164 179.679688,245.6875 C180.518233,246.145836 181.152342,246.773434 181.582031,247.570312 C182.011721,248.367191 182.223958,249.276037 182.21875,250.296875 C182.223958,251.317713 182.009117,252.227861 181.574219,253.027344 C181.139321,253.826827 180.498702,254.454425 179.652344,254.910156 C178.805985,255.365888 177.768235,255.59375 176.539062,255.59375 L173.476562,255.59375 L173.476562,261 L170.578125,261 Z M173.476562,253.210938 L176.148438,253.210938 C177.226568,253.210938 178.016925,252.940107 178.519531,252.398438 C179.022138,251.856768 179.270833,251.156254 179.265625,250.296875 C179.270833,249.453121 179.022138,248.763024 178.519531,248.226562 C178.016925,247.690101 177.22136,247.421875 176.132812,247.421875 L173.476562,247.421875 L173.476562,253.210938 Z M187.845092,261.242188 C186.699253,261.242188 185.743533,260.934899 184.977904,260.320312 C184.212276,259.705726 183.829467,258.809902 183.829467,257.632812 C183.829467,256.731766 184.046913,256.032555 184.481811,255.535156 C184.916709,255.037758 185.481807,254.675782 186.177123,254.449219 C186.872439,254.222655 187.608109,254.067709 188.384154,253.984375 L188.595092,253.960938 C189.579472,253.85677 190.286496,253.748698 190.716186,253.636719 C191.145875,253.524739 191.358113,253.270835 191.352904,252.875 C191.347696,252.281247 191.174521,251.821616 190.833373,251.496094 C190.492226,251.170571 189.988324,251.007812 189.321654,251.007812 C188.628943,251.007812 188.080771,251.158853 187.677123,251.460938 C187.273475,251.763022 187.001343,252.11979 186.860717,252.53125 L184.220092,252.15625 C184.532593,251.062495 185.143264,250.236982 186.052123,249.679688 C186.960982,249.122393 188.058627,248.84375 189.345092,248.84375 C189.902386,248.84375 190.466183,248.911458 191.036498,249.046875 C191.606814,249.182292 192.128944,249.406248 192.602904,249.71875 C193.076865,250.031252 193.458372,250.453122 193.747436,250.984375 C194.0365,251.515628 194.181029,252.177079 194.181029,252.96875 L194.181029,261 L191.462279,261 L191.462279,259.351562 L191.368529,259.351562 C191.11332,259.856773 190.697959,260.298175 190.122436,260.675781 C189.546912,261.053387 188.787805,261.242188 187.845092,261.242188 Z M188.579467,259.164062 C189.433638,259.164062 190.110714,258.919273 190.610717,258.429688 C191.110719,257.940102 191.360717,257.361983 191.360717,256.695312 L191.360717,255.28125 C191.240925,255.380209 191.020875,255.467448 190.700561,255.542969 C190.380247,255.61849 190.040406,255.683593 189.681029,255.738281 C189.321653,255.792969 189.016968,255.835937 188.766967,255.867188 C188.136755,255.95573 187.610719,256.128905 187.188842,256.386719 C186.766965,256.644533 186.556029,257.044268 186.556029,257.585938 C186.556029,258.106773 186.746132,258.499999 187.126342,258.765625 C187.506552,259.031251 187.990922,259.164062 188.579467,259.164062 Z M202.205809,265.546875 C200.716218,265.546875 199.532636,265.255211 198.655028,264.671875 C197.777419,264.088539 197.208414,263.388025 196.947996,262.570312 L199.494871,261.953125 C199.661539,262.25521 199.958411,262.570311 200.385496,262.898438 C200.812582,263.226564 201.434971,263.390625 202.252684,263.390625 C203.028729,263.390625 203.695389,263.195314 204.252684,262.804688 C204.809978,262.414061 205.083413,261.789067 205.072996,260.929688 L205.072996,258.84375 L204.932371,258.84375 C204.786537,259.140626 204.5743,259.441405 204.295653,259.746094 C204.017005,260.050783 203.649822,260.307291 203.19409,260.515625 C202.738359,260.723959 202.16675,260.828125 201.479246,260.828125 C200.557367,260.828125 199.72274,260.610679 198.97534,260.175781 C198.227941,259.740883 197.634196,259.088546 197.19409,258.21875 C196.753984,257.348954 196.533934,256.263027 196.533934,254.960938 C196.533934,253.643223 196.753984,252.529952 197.19409,251.621094 C197.634196,250.712235 198.229243,250.022138 198.979246,249.550781 C199.72925,249.079425 200.565179,248.84375 201.487059,248.84375 C202.190187,248.84375 202.770911,248.962238 203.229246,249.199219 C203.687582,249.436199 204.049557,249.72005 204.315184,250.050781 C204.58081,250.381512 204.786537,250.692707 204.932371,250.984375 L205.088621,250.984375 L205.088621,249 L207.877684,249 L207.877684,261.046875 C207.877684,262.052088 207.626384,262.888018 207.123778,263.554688 C206.621171,264.221357 205.94149,264.72005 205.084715,265.050781 C204.22794,265.381512 203.268314,265.546875 202.205809,265.546875 Z M202.268309,258.609375 C203.169355,258.609375 203.864661,258.285159 204.354246,257.636719 C204.843832,256.988278 205.088621,256.091152 205.088621,254.945312 C205.088621,253.80989 204.846436,252.895837 204.362059,252.203125 C203.877681,251.510413 203.179772,251.164062 202.268309,251.164062 C201.325596,251.164062 200.614665,251.522132 200.135496,252.238281 C199.656327,252.954431 199.416746,253.856765 199.416746,254.945312 C199.416746,256.049485 199.658931,256.936195 200.143309,257.605469 C200.627686,258.274743 201.336012,258.609375 202.268309,258.609375 Z M216.089963,261.234375 C214.886832,261.234375 213.849082,260.981773 212.976682,260.476562 C212.104282,259.971352 211.433716,259.257817 210.964963,258.335938 C210.496211,257.414058 210.261838,256.325527 210.261838,255.070312 C210.261838,253.835931 210.496211,252.751307 210.964963,251.816406 C211.433716,250.881506 212.093865,250.152346 212.945432,249.628906 C213.796999,249.105466 214.795687,248.84375 215.941526,248.84375 C216.925906,248.84375 217.834751,249.055987 218.668088,249.480469 C219.501426,249.90495 220.169388,250.563798 220.671994,251.457031 C221.174601,252.350265 221.425901,253.499993 221.425901,254.90625 L221.425901,255.773438 L213.066526,255.773438 C213.082151,256.799484 213.367304,257.598955 213.921994,258.171875 C214.476685,258.744795 215.212354,259.03125 216.129026,259.03125 C216.738404,259.03125 217.265742,258.899741 217.711057,258.636719 C218.156372,258.373697 218.475379,257.989586 218.668088,257.484375 L221.308713,257.78125 C221.058712,258.822922 220.476687,259.658851 219.562619,260.289062 C218.648552,260.919274 217.491012,261.234375 216.089963,261.234375 Z M213.074338,253.867188 L218.714963,253.867188 C218.709755,253.049475 218.455851,252.375003 217.953244,251.84375 C217.450638,251.312497 216.793092,251.046875 215.980588,251.046875 C215.136834,251.046875 214.451945,251.325518 213.925901,251.882812 C213.399856,252.440107 213.116005,253.101559 213.074338,253.867188 Z M232.092647,253.96875 L232.092647,261 L229.264522,261 L229.264522,249 L231.967647,249 L231.967647,251.039062 L232.108272,251.039062 C232.384315,250.372392 232.825717,249.839846 233.432491,249.441406 C234.039265,249.042967 234.790559,248.84375 235.686397,248.84375 C236.925987,248.84375 237.92207,249.236975 238.674678,250.023438 C239.427286,250.8099 239.80098,251.921868 239.795772,253.359375 L239.795826,261 L236.967647,261 L236.967647,253.796875 C236.967647,252.994788 236.760618,252.36719 236.346553,251.914062 C235.932489,251.460935 235.36088,251.234375 234.63171,251.234375 C233.886914,251.234375 233.277545,251.472654 232.803585,251.949219 C232.329624,252.425784 232.092647,253.098954 232.092647,253.96875 Z M247.906489,261.234375 C246.734608,261.234375 245.718993,260.976565 244.859614,260.460938 C244.000235,259.94531 243.334877,259.222661 242.86352,258.292969 C242.392164,257.363277 242.156489,256.281256 242.156489,255.046875 C242.156489,253.807285 242.392164,252.722661 242.86352,251.792969 C243.334877,250.863277 244.000235,250.139326 244.859614,249.621094 C245.718993,249.102862 246.734608,248.84375 247.906489,248.84375 C249.07837,248.84375 250.095287,249.102862 250.95727,249.621094 C251.819254,250.139326 252.484612,250.863277 252.953364,251.792969 C253.422116,252.722661 253.656489,253.807285 253.656489,255.046875 C253.656489,256.281256 253.422116,257.363277 252.953364,258.292969 C252.484612,259.222661 251.819254,259.94531 250.95727,260.460938 C250.095287,260.976565 249.07837,261.234375 247.906489,261.234375 Z M247.922114,258.96875 C248.562742,258.96875 249.095289,258.794273 249.51977,258.445312 C249.944252,258.096352 250.261957,257.625003 250.472895,257.03125 C250.683834,256.437497 250.789301,255.773441 250.789301,255.039062 C250.789301,254.304684 250.683834,253.639326 250.472895,253.042969 C250.261957,252.446612 249.944252,251.971356 249.51977,251.617188 C249.095289,251.263019 248.562742,251.085938 247.922114,251.085938 C247.276277,251.085938 246.738522,251.263019 246.308833,251.617188 C245.879143,251.971356 245.557532,252.446612 245.343989,253.042969 C245.130446,253.639326 245.023676,254.304684 245.023676,255.039062 C245.023676,255.773441 245.130446,256.437497 245.343989,257.03125 C245.557532,257.625003 245.879143,258.096352 246.308833,258.445312 C246.738522,258.794273 247.276277,258.96875 247.922114,258.96875 Z M262.032831,249 L262.032831,251.1875 L259.665643,251.1875 L259.665643,257.375 C259.660435,257.942711 259.784132,258.316405 260.036737,258.496094 C260.289343,258.675782 260.592725,258.765625 260.946893,258.765625 C261.123978,258.765625 261.286736,258.751302 261.435175,258.722656 C261.583613,258.69401 261.696893,258.671875 261.775018,258.65625 L262.251581,260.859375 C262.100538,260.911459 261.885697,260.96875 261.60705,261.03125 C261.328402,261.09375 260.988562,261.130208 260.587518,261.140625 C259.525013,261.177084 258.633095,260.917972 257.911737,260.363281 C257.190379,259.808591 256.83231,258.966151 256.837518,257.835938 L256.837518,251.1875 L255.134393,251.1875 L255.134393,249 L256.837518,249 L256.837518,246.125 L259.665643,246.125 L259.665643,249 L262.032831,249 Z M276.08239,249 L276.08239,251.1875 L273.590202,251.1875 L273.590202,261 L270.762077,261 L270.762077,251.1875 L268.98864,251.1875 L268.98864,249 L270.762077,249 L270.762077,247.867188 C270.762077,247.059892 270.930044,246.388024 271.265983,245.851562 C271.601923,245.315101 272.053741,244.914064 272.621452,244.648438 C273.189163,244.382811 273.819365,244.25 274.512077,244.25 C275.001663,244.25 275.436554,244.289062 275.816765,244.367188 C276.196975,244.445313 276.478222,244.515625 276.660515,244.578125 L276.090202,246.765625 C275.975618,246.729166 275.827182,246.691406 275.64489,246.652344 C275.462597,246.613281 275.259474,246.59375 275.035515,246.59375 C274.50947,246.59375 274.137078,246.720051 273.918327,246.972656 C273.699576,247.225262 273.590202,247.585935 273.590202,248.054688 L273.590202,249 L276.08239,249 Z M283.075919,261.234375 C281.904038,261.234375 280.888423,260.976565 280.029044,260.460938 C279.169665,259.94531 278.504307,259.222661 278.03295,258.292969 C277.561594,257.363277 277.325919,256.281256 277.325919,255.046875 C277.325919,253.807285 277.561594,252.722661 278.03295,251.792969 C278.504307,250.863277 279.169665,250.139326 280.029044,249.621094 C280.888423,249.102862 281.904038,248.84375 283.075919,248.84375 C284.2478,248.84375 285.264717,249.102862 286.1267,249.621094 C286.988684,250.139326 287.654042,250.863277 288.122794,251.792969 C288.591546,252.722661 288.825919,253.807285 288.825919,255.046875 C288.825919,256.281256 288.591546,257.363277 288.122794,258.292969 C287.654042,259.222661 286.988684,259.94531 286.1267,260.460938 C285.264717,260.976565 284.2478,261.234375 283.075919,261.234375 Z M283.091544,258.96875 C283.732172,258.96875 284.264719,258.794273 284.6892,258.445312 C285.113682,258.096352 285.431387,257.625003 285.642325,257.03125 C285.853264,256.437497 285.958732,255.773441 285.958732,255.039062 C285.958732,254.304684 285.853264,253.639326 285.642325,253.042969 C285.431387,252.446612 285.113682,251.971356 284.6892,251.617188 C284.264719,251.263019 283.732172,251.085938 283.091544,251.085938 C282.445708,251.085938 281.907953,251.263019 281.478263,251.617188 C281.048573,251.971356 280.726962,252.446612 280.513419,253.042969 C280.299876,253.639326 280.193107,254.304684 280.193107,255.039062 C280.193107,255.773441 280.299876,256.437497 280.513419,257.03125 C280.726962,257.625003 281.048573,258.096352 281.478263,258.445312 C281.907953,258.794273 282.445708,258.96875 283.091544,258.96875 Z M298.858511,255.953125 L298.858511,249 L301.686636,249 L301.686636,261 L298.944449,261 L298.944449,258.867188 L298.819449,258.867188 C298.548614,259.539066 298.104608,260.08854 297.487417,260.515625 C296.870227,260.94271 296.11112,261.15625 295.210074,261.15625 C294.032984,261.15625 293.072056,260.764327 292.327261,259.980469 C291.582466,259.196611 291.210074,258.083341 291.210074,256.640625 L291.210074,249 L294.038199,249 L294.038199,256.203125 C294.038199,256.963545 294.24653,257.567706 294.663199,258.015625 C295.079867,258.463544 295.626737,258.6875 296.303824,258.6875 C296.720492,258.6875 297.124134,258.585939 297.514761,258.382812 C297.905388,258.179686 298.226999,257.876304 298.479605,257.472656 C298.73221,257.069008 298.858511,256.562503 298.858511,255.953125 Z M307.41454,253.96875 L307.41454,261 L304.586415,261 L304.586415,249 L307.28954,249 L307.28954,251.039062 L307.430165,251.039062 C307.706208,250.372392 308.14761,249.839846 308.754384,249.441406 C309.361158,249.042967 310.112453,248.84375 311.00829,248.84375 C312.24788,248.84375 313.243964,249.236975 313.996572,250.023438 C314.74918,250.8099 315.122874,251.921868 315.117665,253.359375 L315.117719,261 L312.28954,261 L312.28954,253.796875 C312.28954,252.994788 312.082511,252.36719 311.668447,251.914062 C311.254382,251.460935 310.682773,251.234375 309.953603,251.234375 C309.208808,251.234375 308.599439,251.472654 308.125478,251.949219 C307.651517,252.425784 307.41454,253.098954 307.41454,253.96875 Z M328.829945,261 L326.048695,261 L326.048695,259.109375 L325.884632,259.109375 C325.73359,259.401043 325.521352,259.709634 325.247914,260.035156 C324.974475,260.360679 324.611197,260.63802 324.15807,260.867188 C323.704943,261.096355 323.134636,261.210938 322.447132,261.210938 C321.504419,261.210938 320.660678,260.968752 319.915882,260.484375 C319.171087,259.999998 318.582551,259.29688 318.150257,258.375 C317.717964,257.45312 317.50182,256.33334 317.50182,255.015625 C317.50182,253.682285 317.72187,252.557296 318.161976,251.640625 C318.602082,250.723954 319.195827,250.028648 319.943226,249.554688 C320.690626,249.080727 321.527857,248.84375 322.454945,248.84375 C323.158073,248.84375 323.737495,248.962238 324.193226,249.199219 C324.648958,249.436199 325.009631,249.72005 325.275257,250.050781 C325.540884,250.381512 325.744007,250.692707 325.884632,250.984375 L326.00182,250.984375 L326.00182,245 L328.829945,245 L328.829945,261 Z M326.056507,255 C326.056507,253.833327 325.814322,252.902347 325.329945,252.207031 C324.845567,251.511715 324.147658,251.164062 323.236195,251.164062 C322.293482,251.164062 321.582551,251.523434 321.103382,252.242188 C320.624213,252.960941 320.384632,253.880203 320.384632,255 C320.384632,256.125006 320.626817,257.054684 321.111195,257.789062 C321.595572,258.523441 322.303899,258.890625 323.236195,258.890625 C324.137241,258.890625 324.832547,258.532556 325.322132,257.816406 C325.811718,257.100257 326.056507,256.161464 326.056507,255 Z" id="Page-not-found" fill="#000000"></path>
            </g>
        </g>
    </g>
</svg>