<?xml version="1.0" encoding="UTF-8"?>
<svg width="32px" height="18px" viewBox="0 0 32 18" version="1.1" xmlns="http://www.w3.org/2000/svg" xmlns:xlink="http://www.w3.org/1999/xlink">
    <!-- Generator: Sketch 53 (72520) - https://sketchapp.com -->
    <title>icon-pointer</title>
    <desc>Created with Sketch.</desc>
    <g id="Articles" stroke="none" stroke-width="1" fill="none" fill-rule="evenodd">
        <g transform="translate(-612.000000, -679.000000)" fill="#2A02E2" id="icon-pointer" stroke="#2A02E2" stroke-width="0.2">
            <path d="M618.194805,683.41649 C618.681818,683.382664 618.844156,683.281184 619.428571,682.739958 C620.207792,682.063425 621.993506,680.947146 623,680.5074 C623.779221,680.20296 624.720779,680 625.597403,680 C626.311688,680 626.441558,680.033827 627.707792,680.338266 C628.032468,680.439746 628.551948,680.541226 629.266234,680.710359 C630.24026,680.947146 630.954545,681.488372 631.961039,682.739958 C634.136364,683.112051 634.136364,683.112051 638.616883,683.382664 C640.435065,683.51797 641.409091,683.687104 642.058442,683.957717 C642.61039,684.22833 643,684.837209 643,685.479915 C643,686.021142 642.772727,686.427061 642.285714,686.765328 C641.538961,687.272727 640.467532,687.408034 637.707792,687.408034 L634.071429,687.408034 C634.461039,688.05074 634.558442,688.35518 634.558442,688.964059 C634.558442,690.114165 633.779221,690.959831 632.642857,691.027484 C632.805195,691.46723 632.837662,691.67019 632.837662,691.940803 C632.837662,693.158562 631.896104,694.173362 630.824675,694.173362 C630.662338,694.173362 630.467532,694.139535 630.142857,694.004228 C630.175325,694.207188 630.175325,694.308668 630.175325,694.443975 C630.175325,695.255814 629.298701,696 628.357143,696 C628.032468,696 627.545455,695.89852 626.766234,695.627907 C625.987013,695.69556 625.694805,695.69556 625.24026,695.69556 C623.909091,695.69556 622.935065,695.289641 620.24026,693.598309 C619.298701,692.989429 619.038961,692.854123 618.292208,692.549683 C617.935065,692.921776 617.675325,693.124736 617.415584,693.226216 C617.155844,693.327696 616.214286,693.429175 615.564935,693.429175 C614.655844,693.429175 614.266234,693.293869 614.038961,692.887949 C613.38961,691.67019 613,689.505285 613,686.900634 C613,684.566596 613.292208,683.213531 613.876623,682.638478 C614.136364,682.401691 614.298701,682.334038 614.883117,682.300211 C615.954545,682.232558 615.954545,682.232558 616.084416,682.232558 C616.928571,682.232558 617.220779,682.401691 618.194805,683.41649 Z M633.681818,686.460888 L635.045455,686.460888 C639.233766,686.460888 640.824675,686.393235 641.376623,686.224101 C641.733766,686.122622 642.090909,685.784355 642.090909,685.513742 C642.090909,685.040169 641.701299,684.701903 640.987013,684.53277 C640.954545,684.53277 639.525974,684.397463 636.636364,684.160677 C634.363636,683.957717 633.032468,683.856237 632.642857,683.788584 C632.74026,683.991543 632.837662,684.160677 632.902597,684.262156 C633.454545,685.107822 633.649351,685.682875 633.681818,686.460888 Z M617.87013,684.363636 C617.61039,685.006342 617.577922,685.107822 617.512987,685.885835 C617.512987,686.156448 617.448052,687.780127 617.448052,688.016913 C617.448052,688.389006 617.512987,689.133192 617.61039,689.640592 C617.74026,690.520085 617.87013,690.858351 618.292208,691.46723 C618.844156,691.805497 618.844156,691.805497 619.883117,692.312896 L621.928571,693.530655 C623.25974,694.376321 624.266234,694.748414 625.435065,694.849894 C624.038961,693.699789 623.38961,692.752643 623.38961,691.839323 C623.38961,690.756871 624.038961,690.012685 625.012987,690.012685 C624.948052,689.742072 624.915584,689.572939 624.915584,689.437632 C624.915584,688.524313 625.532468,687.915433 626.571429,687.780127 C626.441558,687.54334 626.409091,687.44186 626.344156,687.137421 C624.915584,687.915433 624.753247,688.016913 624.331169,688.15222 C623.844156,688.287526 622.480519,688.490486 621.896104,688.490486 C621.116883,688.490486 620.564935,688.219873 620.564935,687.84778 C620.564935,687.610994 620.727273,687.475687 620.987013,687.475687 C621.019481,687.475687 621.019481,687.475687 621.993506,687.577167 L622.155844,687.577167 C623.487013,687.577167 624.363636,687.340381 625.207792,686.765328 C626.279221,686.054968 626.993506,685.412262 627.61039,684.600423 C627.967532,684.701903 627.967532,684.701903 628.714286,685.006342 C629.298701,685.209302 629.298701,685.209302 629.558442,685.581395 C630.175325,686.528541 630.922078,687.002114 631.798701,687.002114 C632.383117,687.002114 632.772727,686.731501 632.772727,686.325581 C632.772727,685.953488 632.090909,684.634249 631.344156,683.585624 C630.402597,682.232558 629.948052,681.928118 628.194805,681.420719 C627.058442,681.116279 626.051948,680.913319 625.564935,680.913319 C624.785714,680.913319 624.038961,681.082452 623.227273,681.454545 C622.350649,681.860465 620.75974,682.875264 619.850649,683.585624 C619.103896,684.194503 618.649351,684.43129 618.162338,684.43129 C618.097403,684.43129 618,684.397463 617.87013,684.363636 Z M633.032468,687.610994 C632.512987,687.84778 632.285714,687.915433 631.896104,687.915433 C631.409091,687.915433 630.824675,687.780127 630.305195,687.577167 C629.883117,687.408034 629.266234,686.832981 628.909091,686.291755 C628.616883,685.852008 628.487013,685.750529 628.227273,685.750529 C627.74026,685.750529 627.188312,686.325581 627.188312,686.765328 C627.188312,687.374207 627.61039,687.915433 628.519481,688.45666 C628.811688,688.625793 630.272727,689.471459 630.402597,689.505285 C631.019481,689.809725 632.188312,690.181818 632.480519,690.181818 C633.097403,690.181818 633.681818,689.606765 633.681818,688.964059 C633.681818,688.828753 633.616883,688.55814 633.551948,688.422833 C633.487013,688.15222 633.097403,687.577167 633.032468,687.610994 Z M625.75974,689.640592 C625.75974,690.283298 626.441558,690.926004 628.194805,692.008457 C629.525974,692.820296 630.305195,693.158562 630.824675,693.158562 C631.376623,693.158562 631.896104,692.617336 631.896104,692.042283 C631.896104,691.636364 631.506494,691.027484 631.084416,690.824524 C630.207792,690.418605 628.519481,689.539112 628.097403,689.268499 C627.188312,688.693446 627.090909,688.659619 626.733766,688.659619 C626.214286,688.659619 625.75974,689.133192 625.75974,689.640592 Z M624.298701,691.737844 C624.298701,692.27907 624.785714,693.023256 625.597403,693.767442 C626.636364,694.680761 627.480519,695.120507 628.227273,695.120507 C628.844156,695.120507 629.298701,694.782241 629.298701,694.342495 C629.298701,694.105708 629.136364,693.868922 628.779221,693.530655 C628.551948,693.327696 628.551948,693.327696 627.188312,692.48203 C626.506494,692.042283 625.987013,691.67019 625.694805,691.331924 C625.435065,691.061311 625.305195,690.993658 625.11039,690.993658 C624.688312,690.993658 624.298701,691.331924 624.298701,691.737844 Z M616.538961,687.408034 L617.058442,683.61945 C617.058442,683.41649 616.701299,683.179704 616.311688,683.179704 C616.181818,683.179704 616.084416,683.179704 615.88961,683.213531 L615.24026,683.213531 C614.558442,683.213531 614.331169,683.315011 614.168831,683.72093 C613.974026,684.262156 613.844156,685.547569 613.844156,687.103594 C613.844156,689.065539 614.038961,690.486258 614.525974,691.737844 C614.753247,692.312896 614.883117,692.414376 615.467532,692.414376 C616.993506,692.414376 617.383117,692.346723 617.383117,692.008457 C617.383117,691.906977 617.318182,691.737844 617.090909,691.162791 C616.733766,690.350951 616.538961,688.896406 616.538961,687.408034 Z"></path>
        </g>
    </g>
</svg>