<?xml version="1.0" encoding="UTF-8"?>
<svg width="24px" height="14px" viewBox="0 0 24 14" version="1.1" xmlns="http://www.w3.org/2000/svg" xmlns:xlink="http://www.w3.org/1999/xlink">
    <!-- Generator: Sketch 55.2 (78181) - https://sketchapp.com -->
    <title>icon-pointer</title>
    <desc>Created with Sketch.</desc>
    <g id="Home" stroke="none" stroke-width="1" fill="none" fill-rule="evenodd">
        <g id="Artboard-Copy" transform="translate(-29.000000, -60.000000)" fill="#0A0A0A" stroke="#0A0A0A" stroke-width="0.1">
            <g id="Group-5" transform="translate(30.000000, 56.000000)">
                <path d="M3.80952381,7.56236786 C4.16666667,7.53699789 4.28571429,7.46088795 4.71428571,7.05496829 C5.28571429,6.54756871 6.5952381,5.71035941 7.33333333,5.38054968 C7.9047619,5.15221987 8.5952381,5 9.23809524,5 C9.76190476,5 9.85714286,5.02536998 10.7857143,5.25369979 C11.0238095,5.32980973 11.4047619,5.40591966 11.9285714,5.53276956 C12.6428571,5.71035941 13.1666667,6.11627907 13.9047619,7.05496829 C15.5,7.33403805 15.5,7.33403805 18.7857143,7.53699789 C20.1190476,7.6384778 20.8333333,7.7653277 21.3095238,7.96828753 C21.7142857,8.17124736 22,8.62790698 22,9.10993658 C22,9.51585624 21.8333333,9.82029598 21.4761905,10.0739958 C20.9285714,10.4545455 20.1428571,10.5560254 18.1190476,10.5560254 L15.452381,10.5560254 C15.7380952,11.038055 15.8095238,11.2663848 15.8095238,11.7230444 C15.8095238,12.5856237 15.2380952,13.2198732 14.4047619,13.2706131 C14.5238095,13.6004228 14.547619,13.7526427 14.547619,13.9556025 C14.547619,14.8689218 13.8571429,15.6300211 13.0714286,15.6300211 C12.952381,15.6300211 12.8095238,15.6046512 12.5714286,15.5031712 C12.5952381,15.6553911 12.5952381,15.7315011 12.5952381,15.832981 C12.5952381,16.4418605 11.952381,17 11.2619048,17 C11.0238095,17 10.6666667,16.9238901 10.0952381,16.7209302 C9.52380952,16.7716702 9.30952381,16.7716702 8.97619048,16.7716702 C8,16.7716702 7.28571429,16.4672304 5.30952381,15.1987315 C4.61904762,14.7420719 4.42857143,14.640592 3.88095238,14.4122622 C3.61904762,14.6913319 3.42857143,14.8435518 3.23809524,14.9196617 C3.04761905,14.9957717 2.35714286,15.0718816 1.88095238,15.0718816 C1.21428571,15.0718816 0.928571429,14.9704017 0.761904762,14.6659619 C0.285714286,13.7526427 0,12.1289641 0,10.1754757 C0,8.42494715 0.214285714,7.41014799 0.642857143,6.97885835 C0.833333333,6.8012685 0.952380952,6.75052854 1.38095238,6.72515856 C2.16666667,6.6744186 2.16666667,6.6744186 2.26190476,6.6744186 C2.88095238,6.6744186 3.0952381,6.8012685 3.80952381,7.56236786 Z M15.1666667,9.84566596 L16.1666667,9.84566596 C19.2380952,9.84566596 20.4047619,9.794926 20.8095238,9.66807611 C21.0714286,9.59196617 21.3333333,9.33826638 21.3333333,9.13530655 C21.3333333,8.78012685 21.047619,8.52642706 20.5238095,8.39957717 C20.5,8.39957717 19.452381,8.29809725 17.3333333,8.1205074 C15.6666667,7.96828753 14.6904762,7.89217759 14.4047619,7.84143763 C14.4761905,7.99365751 14.547619,8.1205074 14.5952381,8.19661734 C15,8.83086681 15.1428571,9.26215645 15.1666667,9.84566596 Z M3.57142857,8.27272727 C3.38095238,8.75475687 3.35714286,8.83086681 3.30952381,9.41437632 C3.30952381,9.61733615 3.26190476,10.8350951 3.26190476,11.012685 C3.26190476,11.2917548 3.30952381,11.8498943 3.38095238,12.230444 C3.47619048,12.8900634 3.57142857,13.1437632 3.88095238,13.6004228 C4.28571429,13.8541226 4.28571429,13.8541226 5.04761905,14.2346723 L6.54761905,15.1479915 C7.52380952,15.782241 8.26190476,16.0613108 9.11904762,16.1374207 C8.0952381,15.2748414 7.61904762,14.564482 7.61904762,13.8794926 C7.61904762,13.0676533 8.0952381,12.5095137 8.80952381,12.5095137 C8.76190476,12.3065539 8.73809524,12.179704 8.73809524,12.0782241 C8.73809524,11.3932347 9.19047619,10.9365751 9.95238095,10.8350951 C9.85714286,10.6575053 9.83333333,10.5813953 9.78571429,10.3530655 C8.73809524,10.9365751 8.61904762,11.012685 8.30952381,11.1141649 C7.95238095,11.2156448 6.95238095,11.3678647 6.52380952,11.3678647 C5.95238095,11.3678647 5.54761905,11.1649049 5.54761905,10.8858351 C5.54761905,10.7082452 5.66666667,10.6067653 5.85714286,10.6067653 C5.88095238,10.6067653 5.88095238,10.6067653 6.5952381,10.6828753 L6.71428571,10.6828753 C7.69047619,10.6828753 8.33333333,10.5052854 8.95238095,10.0739958 C9.73809524,9.54122622 10.2619048,9.05919662 10.7142857,8.45031712 C10.9761905,8.52642706 10.9761905,8.52642706 11.5238095,8.75475687 C11.952381,8.90697674 11.952381,8.90697674 12.1428571,9.18604651 C12.5952381,9.89640592 13.1428571,10.2515856 13.7857143,10.2515856 C14.2142857,10.2515856 14.5,10.0486258 14.5,9.74418605 C14.5,9.46511628 14,8.4756871 13.452381,7.68921776 C12.7619048,6.6744186 12.4285714,6.44608879 11.1428571,6.06553911 C10.3095238,5.8372093 9.57142857,5.68498943 9.21428571,5.68498943 C8.64285714,5.68498943 8.0952381,5.81183932 7.5,6.09090909 C6.85714286,6.39534884 5.69047619,7.1564482 5.02380952,7.68921776 C4.47619048,8.14587738 4.14285714,8.32346723 3.78571429,8.32346723 C3.73809524,8.32346723 3.66666667,8.29809725 3.57142857,8.27272727 Z M14.6904762,10.7082452 C14.3095238,10.8858351 14.1428571,10.9365751 13.8571429,10.9365751 C13.5,10.9365751 13.0714286,10.8350951 12.6904762,10.6828753 C12.3809524,10.5560254 11.9285714,10.1247357 11.6666667,9.71881607 C11.452381,9.38900634 11.3571429,9.31289641 11.1666667,9.31289641 C10.8095238,9.31289641 10.4047619,9.74418605 10.4047619,10.0739958 C10.4047619,10.5306554 10.7142857,10.9365751 11.3809524,11.3424947 C11.5952381,11.4693446 12.6666667,12.1035941 12.7619048,12.1289641 C13.2142857,12.3572939 14.0714286,12.6363636 14.2857143,12.6363636 C14.7380952,12.6363636 15.1666667,12.205074 15.1666667,11.7230444 C15.1666667,11.6215645 15.1190476,11.4186047 15.0714286,11.3171247 C15.0238095,11.1141649 14.7380952,10.6828753 14.6904762,10.7082452 Z M9.35714286,12.230444 C9.35714286,12.7124736 9.85714286,13.1945032 11.1428571,14.0063425 C12.1190476,14.615222 12.6904762,14.8689218 13.0714286,14.8689218 C13.4761905,14.8689218 13.8571429,14.4630021 13.8571429,14.0317125 C13.8571429,13.7272727 13.5714286,13.2706131 13.2619048,13.1183932 C12.6190476,12.8139535 11.3809524,12.154334 11.0714286,11.9513742 C10.4047619,11.5200846 10.3333333,11.4947146 10.0714286,11.4947146 C9.69047619,11.4947146 9.35714286,11.8498943 9.35714286,12.230444 Z M8.28571429,13.8033827 C8.28571429,14.2093023 8.64285714,14.7674419 9.23809524,15.3255814 C10,16.0105708 10.6190476,16.3403805 11.1666667,16.3403805 C11.6190476,16.3403805 11.952381,16.0866808 11.952381,15.756871 C11.952381,15.5792812 11.8333333,15.4016913 11.5714286,15.1479915 C11.4047619,14.9957717 11.4047619,14.9957717 10.4047619,14.3615222 C9.9047619,14.0317125 9.52380952,13.7526427 9.30952381,13.4989429 C9.11904762,13.2959831 9.02380952,13.2452431 8.88095238,13.2452431 C8.57142857,13.2452431 8.28571429,13.4989429 8.28571429,13.8033827 Z M2.5952381,10.5560254 L2.97619048,7.71458774 C2.97619048,7.56236786 2.71428571,7.38477801 2.42857143,7.38477801 C2.33333333,7.38477801 2.26190476,7.38477801 2.11904762,7.41014799 L1.64285714,7.41014799 C1.14285714,7.41014799 0.976190476,7.48625793 0.857142857,7.79069767 C0.714285714,8.19661734 0.619047619,9.16067653 0.619047619,10.3276956 C0.619047619,11.7991543 0.761904762,12.8646934 1.11904762,13.8033827 C1.28571429,14.2346723 1.38095238,14.3107822 1.80952381,14.3107822 C2.92857143,14.3107822 3.21428571,14.2600423 3.21428571,14.0063425 C3.21428571,13.9302326 3.16666667,13.8033827 3,13.372093 C2.73809524,12.7632135 2.5952381,11.6723044 2.5952381,10.5560254 Z" id="icon-pointer" transform="translate(11.000000, 11.000000) rotate(-360.000000) translate(-11.000000, -11.000000) "></path>
            </g>
        </g>
    </g>
</svg>